<?xml version="1.0" standalone="no"?>
<!DOCTYPE svg PUBLIC "-//W3C//DTD SVG 20010904//EN"
 "http://www.w3.org/TR/2001/REC-SVG-20010904/DTD/svg10.dtd">
<svg version="1.0" xmlns="http://www.w3.org/2000/svg"
 width="207.000000pt" height="209.000000pt" viewBox="0 0 207.000000 209.000000"
 preserveAspectRatio="xMidYMid meet">

<g transform="translate(0.000000,209.000000) scale(0.100000,-0.100000)"
fill="#000000" stroke="none">
<path d="M882 1655 c-85 -19 -213 -83 -288 -144 -172 -140 -275 -377 -261
-596 25 -368 310 -651 677 -672 131 -8 237 14 360 74 79 39 109 61 180 132
143 143 213 309 213 506 -1 123 -21 214 -73 320 -92 189 -279 338 -476 380
-85 18 -248 18 -332 0z m320 -342 c10 -9 18 -24 18 -33 0 -24 -217 -670 -231
-686 -6 -8 -27 -14 -45 -14 -27 0 -37 5 -46 25 -10 21 -2 52 51 213 132 393
165 484 178 498 19 19 52 18 75 -3z m-378 -115 c9 -12 16 -29 16 -38 0 -8 -44
-59 -97 -112 l-98 -98 98 -98 c54 -55 97 -106 97 -116 0 -28 -29 -56 -59 -56
-36 0 -271 235 -271 270 0 19 32 57 125 148 132 130 159 144 189 100z m643
-100 c93 -92 123 -128 123 -147 0 -19 -30 -56 -122 -148 -68 -68 -131 -123
-141 -123 -36 0 -57 19 -57 53 0 27 14 46 92 124 l93 93 -93 93 c-96 97 -111
127 -76 161 31 32 55 18 181 -106z"/>
</g>
</svg>
